<svg xmlns="http://www.w3.org/2000/svg" width="256px" height="256px" viewBox="0 0 256 256"><polygon points="128.202,229.766 243.18,27.361 174.647,27.375 103.016,153.368 40.186,42.76 71.472,42.76 107.797,106.504 116.434,92.175 79.618,27.361 13.23,27.361 102.811,185.063 183.646,42.76 216.324,42.76 128.255,197.803 118.824,181.237 109.694,197.343"/><path fill="#FFFFFF" d="M243.18,27.361L128.202,229.766l-18.508-32.423l9.13-16.105l9.431,16.565L216.324,42.76h-32.678 l-80.836,142.303L13.23,27.361h66.388l36.816,64.813l-8.637,14.329L71.472,42.76H40.186l62.83,110.608l71.631-125.993 L243.18,27.361 M251.771,22.359l-8.593,0.002l-68.532,0.014l-2.908,0l-1.438,2.528l-67.283,118.344L48.776,47.76h19.79 l34.887,61.22l4.223,7.411l4.403-7.305l8.637-14.329l1.511-2.506l-1.445-2.544L83.965,24.892l-1.438-2.53h-2.91H13.23H4.64 l4.243,7.47l89.581,157.701l4.348,7.653l4.348-7.653L186.557,47.76h21.177L128.25,187.688l-5.081-8.925l-4.354-7.648l-4.34,7.656 l-9.13,16.105l-1.403,2.475l1.41,2.47l18.508,32.423l4.353,7.626l4.337-7.635L247.527,29.831L251.771,22.359L251.771,22.359z"/></svg>