<?xml version="1.0" encoding="utf-8"?>
<!-- Generator: Adobe Illustrator 16.0.0, SVG Export Plug-In . SVG Version: 6.00 Build 0)  -->
<!DOCTYPE svg PUBLIC "-//W3C//DTD SVG 1.1//EN" "http://www.w3.org/Graphics/SVG/1.1/DTD/svg11.dtd">
<svg version="1.1" id="Layer_1" xmlns="http://www.w3.org/2000/svg" xmlns:xlink="http://www.w3.org/1999/xlink" x="0px" y="0px"
	 width="25px" height="25px" viewBox="115.5 115.5 25 25" enable-background="new 115.5 115.5 25 25" xml:space="preserve">
<path d="M131.271,133.189l-2.646,2.639V120.17l2.646,2.639c0.243,0.243,0.639,0.243,0.883,0c0.243-0.243,0.243-0.637,0-0.88
	l-3.681-3.669c-0.13-0.129-0.303-0.185-0.473-0.176c-0.17-0.009-0.342,0.046-0.473,0.176l-3.68,3.669
	c-0.244,0.243-0.244,0.637,0,0.88c0.244,0.243,0.639,0.243,0.882,0l2.646-2.639v15.658l-2.646-2.639
	c-0.244-0.243-0.639-0.243-0.882,0s-0.244,0.637,0,0.88l3.68,3.67c0.13,0.13,0.303,0.185,0.472,0.176
	c0.17,0.009,0.343-0.046,0.472-0.176l3.68-3.67c0.243-0.243,0.243-0.637,0-0.88S131.514,132.946,131.271,133.189z"/>
</svg>
